<svg xmlns="http://www.w3.org/2000/svg" viewBox="0 0 16 16" width="64" height="64" shape-rendering="crispEdges">
<rect x="1" y="3" width="3" height="1" fill="#06050b"/>
<rect x="6" y="3" width="4" height="1" fill="#06050b"/>
<rect x="12" y="3" width="3" height="1" fill="#06050b"/>
<rect x="1" y="4" width="1" height="1" fill="#06050b"/>
<rect x="2" y="4" width="1" height="1" fill="#e86a56"/>
<rect x="3" y="4" width="4" height="1" fill="#06050b"/>
<rect x="7" y="4" width="2" height="1" fill="#e86a56"/>
<rect x="9" y="4" width="4" height="1" fill="#06050b"/>
<rect x="13" y="4" width="1" height="1" fill="#e86a56"/>
<rect x="14" y="4" width="1" height="1" fill="#06050b"/>
<rect x="1" y="5" width="1" height="1" fill="#06050b"/>
<rect x="2" y="5" width="2" height="1" fill="#e86a56"/>
<rect x="4" y="5" width="2" height="1" fill="#06050b"/>
<rect x="6" y="5" width="4" height="1" fill="#e86a56"/>
<rect x="10" y="5" width="2" height="1" fill="#06050b"/>
<rect x="12" y="5" width="2" height="1" fill="#e86a56"/>
<rect x="14" y="5" width="1" height="1" fill="#06050b"/>
<rect x="1" y="6" width="1" height="1" fill="#06050b"/>
<rect x="2" y="6" width="12" height="1" fill="#e86a56"/>
<rect x="14" y="6" width="1" height="1" fill="#06050b"/>
<rect x="1" y="7" width="1" height="1" fill="#06050b"/>
<rect x="2" y="7" width="1" height="1" fill="#ffb8a8"/>
<rect x="3" y="7" width="10" height="1" fill="#e86a56"/>
<rect x="13" y="7" width="1" height="1" fill="#a83a2a"/>
<rect x="14" y="7" width="1" height="1" fill="#06050b"/>
<rect x="1" y="8" width="1" height="1" fill="#06050b"/>
<rect x="2" y="8" width="1" height="1" fill="#ffb8a8"/>
<rect x="3" y="8" width="1" height="1" fill="#e86a56"/>
<rect x="4" y="8" width="1" height="1" fill="#e86a56"/>
<rect x="5" y="8" width="6" height="1" fill="#e86a56"/>
<rect x="11" y="8" width="1" height="1" fill="#e86a56"/>
<rect x="12" y="8" width="1" height="1" fill="#e86a56"/>
<rect x="13" y="8" width="1" height="1" fill="#a83a2a"/>
<rect x="14" y="8" width="1" height="1" fill="#06050b"/>
<rect x="1" y="9" width="1" height="1" fill="#06050b"/>
<rect x="2" y="9" width="1" height="1" fill="#ffb8a8"/>
<rect x="3" y="9" width="10" height="1" fill="#e86a56"/>
<rect x="13" y="9" width="1" height="1" fill="#a83a2a"/>
<rect x="14" y="9" width="1" height="1" fill="#06050b"/>
<rect x="1" y="10" width="1" height="1" fill="#06050b"/>
<rect x="2" y="10" width="12" height="1" fill="#a83a2a"/>
<rect x="14" y="10" width="1" height="1" fill="#06050b"/>
<rect x="1" y="11" width="14" height="1" fill="#06050b"/>
</svg>
