<svg xmlns="http://www.w3.org/2000/svg" viewBox="0 0 16 16" width="64" height="64" shape-rendering="crispEdges">
<rect x="5" y="1" width="4" height="1" fill="#06050b"/>
<rect x="4" y="2" width="2" height="1" fill="#06050b"/>
<rect x="6" y="2" width="1" height="1" fill="#e4e8ee"/>
<rect x="7" y="2" width="1" height="1" fill="#b8bec8"/>
<rect x="8" y="2" width="1" height="1" fill="#06050b"/>
<rect x="3" y="3" width="2" height="1" fill="#06050b"/>
<rect x="5" y="3" width="1" height="1" fill="#e4e8ee"/>
<rect x="6" y="3" width="2" height="1" fill="#b8bec8"/>
<rect x="8" y="3" width="1" height="1" fill="#06050b"/>
<rect x="0" y="4" width="4" height="1" fill="#06050b"/>
<rect x="4" y="4" width="1" height="1" fill="#e4e8ee"/>
<rect x="5" y="4" width="3" height="1" fill="#b8bec8"/>
<rect x="8" y="4" width="3" height="1" fill="#06050b"/>
<rect x="12" y="4" width="3" height="1" fill="#06050b"/>
<rect x="0" y="5" width="1" height="1" fill="#06050b"/>
<rect x="1" y="5" width="3" height="1" fill="#e4e8ee"/>
<rect x="4" y="5" width="4" height="1" fill="#b8bec8"/>
<rect x="8" y="5" width="1" height="1" fill="#06050b"/>
<rect x="9" y="5" width="1" height="1" fill="#e86a56"/>
<rect x="10" y="5" width="3" height="1" fill="#06050b"/>
<rect x="13" y="5" width="1" height="1" fill="#e86a56"/>
<rect x="14" y="5" width="1" height="1" fill="#06050b"/>
<rect x="0" y="6" width="1" height="1" fill="#06050b"/>
<rect x="1" y="6" width="1" height="1" fill="#e4e8ee"/>
<rect x="2" y="6" width="6" height="1" fill="#b8bec8"/>
<rect x="8" y="6" width="2" height="1" fill="#06050b"/>
<rect x="10" y="6" width="1" height="1" fill="#e86a56"/>
<rect x="11" y="6" width="1" height="1" fill="#06050b"/>
<rect x="12" y="6" width="1" height="1" fill="#e86a56"/>
<rect x="13" y="6" width="2" height="1" fill="#06050b"/>
<rect x="0" y="7" width="1" height="1" fill="#06050b"/>
<rect x="1" y="7" width="1" height="1" fill="#e4e8ee"/>
<rect x="2" y="7" width="6" height="1" fill="#b8bec8"/>
<rect x="8" y="7" width="3" height="1" fill="#06050b"/>
<rect x="11" y="7" width="1" height="1" fill="#e86a56"/>
<rect x="12" y="7" width="2" height="1" fill="#06050b"/>
<rect x="0" y="8" width="1" height="1" fill="#06050b"/>
<rect x="1" y="8" width="1" height="1" fill="#e4e8ee"/>
<rect x="2" y="8" width="6" height="1" fill="#b8bec8"/>
<rect x="8" y="8" width="2" height="1" fill="#06050b"/>
<rect x="10" y="8" width="1" height="1" fill="#e86a56"/>
<rect x="11" y="8" width="1" height="1" fill="#06050b"/>
<rect x="12" y="8" width="1" height="1" fill="#e86a56"/>
<rect x="13" y="8" width="2" height="1" fill="#06050b"/>
<rect x="0" y="9" width="1" height="1" fill="#06050b"/>
<rect x="1" y="9" width="1" height="1" fill="#e4e8ee"/>
<rect x="2" y="9" width="6" height="1" fill="#b8bec8"/>
<rect x="8" y="9" width="1" height="1" fill="#06050b"/>
<rect x="9" y="9" width="1" height="1" fill="#e86a56"/>
<rect x="10" y="9" width="3" height="1" fill="#06050b"/>
<rect x="13" y="9" width="1" height="1" fill="#e86a56"/>
<rect x="14" y="9" width="1" height="1" fill="#06050b"/>
<rect x="0" y="10" width="1" height="1" fill="#06050b"/>
<rect x="1" y="10" width="3" height="1" fill="#7a808a"/>
<rect x="4" y="10" width="4" height="1" fill="#b8bec8"/>
<rect x="8" y="10" width="3" height="1" fill="#06050b"/>
<rect x="12" y="10" width="3" height="1" fill="#06050b"/>
<rect x="0" y="11" width="4" height="1" fill="#06050b"/>
<rect x="4" y="11" width="1" height="1" fill="#7a808a"/>
<rect x="5" y="11" width="3" height="1" fill="#b8bec8"/>
<rect x="8" y="11" width="1" height="1" fill="#06050b"/>
<rect x="3" y="12" width="2" height="1" fill="#06050b"/>
<rect x="5" y="12" width="1" height="1" fill="#7a808a"/>
<rect x="6" y="12" width="2" height="1" fill="#b8bec8"/>
<rect x="8" y="12" width="1" height="1" fill="#06050b"/>
<rect x="4" y="13" width="2" height="1" fill="#06050b"/>
<rect x="6" y="13" width="1" height="1" fill="#7a808a"/>
<rect x="7" y="13" width="1" height="1" fill="#b8bec8"/>
<rect x="8" y="13" width="1" height="1" fill="#06050b"/>
<rect x="5" y="14" width="4" height="1" fill="#06050b"/>
</svg>
